HIERARCHY
ROOT hip
{
  OFFSET 0 0 0
  CHANNELS 6 Xposition Yposition Zposition Zrotation Yrotation Xrotation
  JOINT abdomen
  {
    OFFSET 0 20.6881 -0.73152
    CHANNELS 3 Zrotation Xrotation Yrotation
    JOINT chest
    {
      OFFSET 0 11.7043 -0.48768
      CHANNELS 3 Zrotation Xrotation Yrotation
      JOINT neck
      {
        OFFSET 0 22.1894 -2.19456
        CHANNELS 3 Zrotation Xrotation Yrotation
        JOINT head
        {
          OFFSET -0.24384 7.07133 1.2192
          CHANNELS 3 Zrotation Xrotation Yrotation
          JOINT leftEye
          {
            OFFSET 4.14528 8.04674 8.04672
            CHANNELS 3 Zrotation Xrotation Yrotation
            End Site
            {
              OFFSET 1 0 0
            }
          }
          JOINT rightEye
          {
            OFFSET -3.6576 8.04674 8.04672
            CHANNELS 3 Zrotation Xrotation Yrotation
            End Site
            {
              OFFSET 1 0 0
            }
          }
        }
      }
      JOINT rCollar
      {
        OFFSET -2.68224 19.2634 -4.8768
        CHANNELS 3 Zrotation Xrotation Yrotation
        JOINT rShldr
        {
          OFFSET -8.77824 -1.95073 1.46304
          CHANNELS 3 Zrotation Xrotation Yrotation
          JOINT rForeArm
          {
            OFFSET -28.1742 -1.7115 0.48768
            CHANNELS 3 Zrotation Xrotation Yrotation
            JOINT rHand
            {
              OFFSET -22.5879 0.773209 7.07136
              CHANNELS 3 Zrotation Xrotation Yrotation
              JOINT rThumb1
              {
                OFFSET -1.2192 -0.487915 3.41376
                CHANNELS 3 Zrotation Xrotation Yrotation
                JOINT rThumb2
                {
                  OFFSET -3.37035 -0.52449 3.41376
                  CHANNELS 3 Zrotation Xrotation Yrotation
                  End Site
                  {
                    OFFSET -1.78271 -1.18214 1.43049
                  }
                }
              }
              JOINT rIndex1
              {
                OFFSET -7.75947 0.938293 5.60832
                CHANNELS 3 Zrotation Xrotation Yrotation
                JOINT rIndex2
                {
                  OFFSET -2.54057 -0.884171 1.56538
                  CHANNELS 3 Zrotation Xrotation Yrotation
                  End Site
                  {
                    OFFSET -1.62519 -0.234802 1.16502
                  }
                }
              }
              JOINT rMid1
              {
                OFFSET -8.24714 1.18213 3.41376
                CHANNELS 3 Zrotation Xrotation Yrotation
                JOINT rMid2
                {
                  OFFSET -3.10165 -0.590103 1.0647
                  CHANNELS 3 Zrotation Xrotation Yrotation
                  End Site
                  {
                    OFFSET -2.48547 -0.328903 0.83742
                  }
                }
              }
              JOINT rRing1
              {
                OFFSET -8.82822 0.546677 1.51678
                CHANNELS 3 Zrotation Xrotation Yrotation
                JOINT rRing2
                {
                  OFFSET -2.60934 -0.819778 -0.0198488
                  CHANNELS 3 Zrotation Xrotation Yrotation
                  End Site
                  {
                    OFFSET -2.33842 -0.294052 0.168128
                  }
                }
              }
              JOINT rPinky1
              {
                OFFSET -8.27202 -0.0477905 -0.4584
                CHANNELS 3 Zrotation Xrotation Yrotation
                JOINT rPinky2
                {
                  OFFSET -1.82734 -0.647385 -0.700984
                  CHANNELS 3 Zrotation Xrotation Yrotation
                  End Site
                  {
                    OFFSET -1.69225 -0.51767 -0.607171
                  }
                }
              }
            }
          }
        }
      }
      JOINT lCollar
      {
        OFFSET 2.68224 19.2634 -4.8768
        CHANNELS 3 Zrotation Xrotation Yrotation
        JOINT lShldr
        {
          OFFSET 8.77824 -1.95073 1.46304
          CHANNELS 3 Zrotation Xrotation Yrotation
          JOINT lForeArm
          {
            OFFSET 28.1742 -1.7115 0.48768
            CHANNELS 3 Zrotation Xrotation Yrotation
            JOINT lHand
            {
              OFFSET 22.5879 0.773209 7.07136
              CHANNELS 3 Zrotation Xrotation Yrotation
              JOINT lThumb1
              {
                OFFSET 1.2192 -0.487915 3.41376
                CHANNELS 3 Zrotation Xrotation Yrotation
                JOINT lThumb2
                {
                  OFFSET 3.37035 -0.52449 3.41376
                  CHANNELS 3 Zrotation Xrotation Yrotation
                  End Site
                  {
                    OFFSET 1.78271 -1.18214 1.43049
                  }
                }
              }
              JOINT lIndex1
              {
                OFFSET 7.75947 0.938293 5.60832
                CHANNELS 3 Zrotation Xrotation Yrotation
                JOINT lIndex2
                {
                  OFFSET 2.54057 -0.884171 1.56538
                  CHANNELS 3 Zrotation Xrotation Yrotation
                  End Site
                  {
                    OFFSET 1.62519 -0.234802 1.16502
                  }
                }
              }
              JOINT lMid1
              {
                OFFSET 8.24714 1.18213 3.41376
                CHANNELS 3 Zrotation Xrotation Yrotation
                JOINT lMid2
                {
                  OFFSET 3.10165 -0.590103 1.0647
                  CHANNELS 3 Zrotation Xrotation Yrotation
                  End Site
                  {
                    OFFSET 2.48547 -0.328903 0.83742
                  }
                }
              }
              JOINT lRing1
              {
                OFFSET 8.82822 0.546677 1.51678
                CHANNELS 3 Zrotation Xrotation Yrotation
                JOINT lRing2
                {
                  OFFSET 2.60934 -0.819778 -0.0198488
                  CHANNELS 3 Zrotation Xrotation Yrotation
                  End Site
                  {
                    OFFSET 2.33842 -0.294052 0.168128
                  }
                }
              }
              JOINT lPinky1
              {
                OFFSET 8.27202 -0.0477905 -0.4584
                CHANNELS 3 Zrotation Xrotation Yrotation
                JOINT lPinky2
                {
                  OFFSET 1.82734 -0.647385 -0.700984
                  CHANNELS 3 Zrotation Xrotation Yrotation
                  End Site
                  {
                    OFFSET 1.69225 -0.51767 -0.607171
                  }
                }
              }
            }
          }
        }
      }
    }
  }
  JOINT rButtock
  {
    OFFSET -8.77824 4.35084 1.2192
    CHANNELS 3 Zrotation Xrotation Yrotation
    JOINT rThigh
    {
      OFFSET 0 -1.70687 -2.19456
      CHANNELS 3 Zrotation Xrotation Yrotation
      JOINT rShin
      {
        OFFSET 0 -36.8199 0.73152
        CHANNELS 3 Zrotation Xrotation Yrotation
        JOINT rFoot
        {
          OFFSET 0.73152 -45.1104 -5.12064
          CHANNELS 3 Zrotation Xrotation Yrotation
          End Site
          {
            OFFSET -1.1221 -3.69964 12.103
          }
        }
      }
    }
  }
  JOINT lButtock
  {
    OFFSET 8.77824 4.35084 1.2192
    CHANNELS 3 Zrotation Xrotation Yrotation
    JOINT lThigh
    {
      OFFSET 0 -1.70687 -2.19456
      CHANNELS 3 Zrotation Xrotation Yrotation
      JOINT lShin
      {
        OFFSET 0 -36.8199 0.73152
        CHANNELS 3 Zrotation Xrotation Yrotation
        JOINT lFoot
        {
          OFFSET -0.73152 -45.1104 -5.12064
          CHANNELS 3 Zrotation Xrotation Yrotation
          End Site
          {
            OFFSET 1.1221 -3.69964 12.103
          }
        }
      }
    }
  }
}
MOTION
Frames:	4
Frame Time:	0.00833333
52.1776 85.5269 89.6732 0.0 0.0 0.0 2.34098 -0.0022238 0.0637207 0.64659 0.00595046 0.111937 -5.0106e-15 0.0 -9.93923e-17 -1.5763e-14 3.18055e-15 -2.51587e-16 -0.0 0.0 0.0 -0.0 0.0 0.0 -2.43635e-15 2.91188e-17 1.49089e-16 -5.41209e-14 3.85145e-16 -1.98785e-16 -9.38661e-13 3.04737e-13 -9.54166e-15 -1.08386e-11 -1.70781e-13 -1.49486e-13 -2.55685e-11 2.95431e-13 -3.11694e-13 -4.41715e-11 5.08889e-13 -5.51826e-13 -2.55653e-11 2.93804e-13 -3.21236e-13 7.73091 5.47488 0.417314 -2.55709e-11 2.94897e-13 -3.18055e-13 2.90554 0.965183 0.102902 -2.55648e-11 2.95493e-13 -3.16465e-13 10.2786 0.731801 0.0259123 -2.55784e-11 2.97382e-13 -3.02153e-13 2.22167 -0.733487 -0.20892 -2.63281e-15 2.56246e-17 -2.98177e-16 -5.6035e-14 5.90142e-16 -1.39149e-15 -9.47954e-13 -2.63787e-13 -3.18055e-15 -1.0846e-11 3.91705e-13 -1.27222e-13 -2.55899e-11 2.78252e-13 -3.08514e-13 -4.41779e-11 4.80264e-13 -5.34333e-13 -2.55919e-11 2.79094e-13 -2.98972e-13 -7.73091 5.47488 -0.417314 -2.55886e-11 2.77802e-13 -3.14875e-13 -2.90554 0.965183 -0.102902 -2.55944e-11 2.78398e-13 -3.1408e-13 -10.2786 0.731801 -0.0259123 -2.55844e-11 2.79889e-13 -3.30778e-13 -2.22167 -0.733487 0.20892 -2.03217e-16 0.0 -3.88251e-19 2.21591 -8.02968 -0.231388 0.00606902 8.97359 0.152047 -0.478128 -0.951416 0.034911 2.03217e-16 0.0 3.88251e-19 1.35248 -1.92788 -0.00536491 0.00846352 -2.07867 0.069433 0.423426 3.99898 -0.127225
53.3579 84.793 78.058 -178.754 1.7474 -179.675 2.94907 1.38763 0.761804 0.403496 -2.63254 0.353843 -2.08062 2.28602 -0.603486 3.12166 -5.63786 -0.39768 -0.0 0.0 0.0 -0.0 0.0 0.0 5.88129e-15 -6.35895e-15 -1.55064e-14 22.2465 13.4005 -5.65763 -5.97272 -3.18676 8.75817 0.00359522 1.33861 0.187947 -2.3045e-10 1.10315e-10 7.42287e-13 -3.9838e-10 1.89598e-10 2.82754e-12 -2.30446e-10 1.10314e-10 7.33192e-13 7.73091 5.47488 0.417314 -2.3045e-10 1.10314e-10 7.40498e-13 2.90554 0.965183 0.102902 -2.30444e-10 1.10316e-10 7.37696e-13 10.2786 0.731801 0.0259123 -2.30457e-10 1.10318e-10 7.4835e-13 2.22167 -0.733487 -0.20892 5.76742e-15 -6.36042e-15 -1.58698e-14 -21.7792 10.0252 4.75073 4.55375 -2.14009 -7.03385 -0.0752317 6.09183 -0.838784 2.06172e-10 4.86703e-11 -8.93393e-11 3.5499e-10 8.08072e-11 -1.58805e-10 2.06169e-10 4.86707e-11 -8.933e-11 -7.73091 5.47488 -0.417314 2.06174e-10 4.86697e-11 -8.93441e-11 -2.90554 0.965183 -0.102902 2.06167e-10 4.86704e-11 -8.9343e-11 -10.2786 0.731801 -0.0259123 2.06178e-10 4.86732e-11 -8.93581e-11 -2.22167 -0.733487 0.20892 -2.03217e-16 0.0 -3.88251e-19 4.56495 -7.29364 5.22551 0.0122068 11.7284 0.206384 -1.22539 -3.84441 -9.07504 2.03217e-16 0.0 3.88251e-19 0.611724 -3.19567 -6.18397 -0.019569 3.75271 -0.130847 1.28808 -1.66174 6.41618
53.3652 84.7901 78.101 -178.774 1.8613 -179.669 3.5553 2.85 1.49871 0.171849 -5.41835 0.610994 -4.22955 4.70136 -1.24397 6.33483 -11.5942 -0.829696 -0.0 0.0 0.0 -0.0 0.0 0.0 1.56766e-14 -1.27599e-14 -3.33741e-14 48.9453 27.0899 -12.7388 -11.2309 -6.29946 18.0902 -0.00222062 2.77105 0.389422 -4.52452e-10 2.28666e-10 1.38096e-12 -7.82175e-10 3.92989e-10 5.62357e-12 -4.52447e-10 2.28665e-10 1.37261e-12 7.73091 5.47488 0.417314 -4.52449e-10 2.28665e-10 1.38414e-12 2.90554 0.965183 0.102902 -4.52444e-10 2.28668e-10 1.37653e-12 10.2786 0.731801 0.0259123 -4.52455e-10 2.28669e-10 1.38334e-12 2.22167 -0.733487 -0.20892 1.56517e-14 -1.27592e-14 -3.36474e-14 -46.7128 20.3783 10.2684 8.79654 -4.29162 -14.4942 0.0435852 12.5418 -1.75964 4.58278e-10 9.82267e-11 -1.88975e-10 7.89151e-10 1.62824e-10 -3.35795e-10 4.58272e-10 9.82265e-11 -1.88966e-10 -7.73091 5.47488 -0.417314 4.58279e-10 9.8226e-11 -1.88978e-10 -2.90554 0.965183 -0.102902 4.58272e-10 9.82267e-11 -1.88976e-10 -10.2786 0.731801 -0.0259123 4.58284e-10 9.8231e-11 -1.8899e-10 -2.22167 -0.733487 0.20892 -2.03217e-16 0.0 -3.88251e-19 6.89812 -6.45076 10.9815 0.0126587 14.6374 0.265526 -3.00534 -6.63419 -18.8064 2.03217e-16 0.0 3.88251e-19 -0.47013 -4.45537 -12.753 -0.00441578 9.91399 -0.347322 3.6079 -7.46198 13.4537
53.3774 84.7865 78.1428 -178.774 1.9858 -179.651 4.06344 4.16476 2.16301 -0.0152546 -7.90881 0.844568 -6.09654 6.85499 -1.82205 9.12119 -16.9102 -1.24093 -0.0 0.0 0.0 -0.0 0.0 0.0 2.25166e-14 -1.91351e-14 -4.68173e-14 76.3855 38.4101 -21.2634 -15.0816 -8.66839 26.5603 -0.0156153 4.01565 0.565075 -6.40213e-10 3.30354e-10 2.85025e-12 -1.1068e-09 5.67777e-10 9.58628e-12 -6.40208e-10 3.30354e-10 2.84205e-12 7.73091 5.47488 0.417314 -6.40209e-10 3.30353e-10 2.8576e-12 2.90554 0.965183 0.102902 -6.40204e-10 3.30357e-10 2.84602e-12 10.2786 0.731801 0.0259123 -6.40214e-10 3.30359e-10 2.84935e-12 2.22167 -0.733487 -0.20892 2.25679e-14 -1.91325e-14 -4.7013e-14 -70.8774 29.1877 16.1271 12.1172 -6.03407 -21.2099 0.333336 18.2594 -2.6349 6.69697e-10 1.45455e-10 -2.67401e-10 1.15333e-09 2.41461e-10 -4.75346e-10 6.6969e-10 1.45454e-10 -2.67392e-10 -7.73091 5.47488 -0.417314 6.69698e-10 1.45454e-10 -2.67403e-10 -2.90554 0.965183 -0.102902 6.69691e-10 1.45454e-10 -2.67401e-10 -10.2786 0.731801 -0.0259123 6.69704e-10 1.4546e-10 -2.67413e-10 -2.22167 -0.733487 0.20892 -2.03217e-16 0.0 -3.88251e-19 8.83836 -5.68175 16.0888 0.00800713 17.2378 0.320238 -5.38633 -8.68356 -27.5756 2.03217e-16 0.0 3.88251e-19 -1.67506 -5.48684 -18.6005 0.0499799 15.4148 -0.55027 6.88527 -12.2566 19.9681
